<?xml version="1.0" encoding="UTF-8" standalone="no"?>
<!-- Created with Inkscape (http://www.inkscape.org/) -->

<svg
   width="121.65576mm"
   height="83.900528mm"
   viewBox="0 0 121.65576 83.900528"
   version="1.1"
   id="svg5"
   xml:space="preserve"
   sodipodi:docname="icon.svg"
   inkscape:version="1.3.2 (091e20e, 2023-11-25, custom)"
   inkscape:export-filename="icon.png"
   inkscape:export-xdpi="96"
   inkscape:export-ydpi="96"
   xmlns:inkscape="http://www.inkscape.org/namespaces/inkscape"
   xmlns:sodipodi="http://sodipodi.sourceforge.net/DTD/sodipodi-0.dtd"
   xmlns="http://www.w3.org/2000/svg"
   xmlns:svg="http://www.w3.org/2000/svg"><sodipodi:namedview
     id="namedview1"
     pagecolor="#505050"
     bordercolor="#ffffff"
     borderopacity="1"
     inkscape:showpageshadow="0"
     inkscape:pageopacity="0"
     inkscape:pagecheckerboard="1"
     inkscape:deskcolor="#505050"
     inkscape:document-units="mm"
     showguides="true"
     inkscape:zoom="0.65820105"
     inkscape:cx="145.09244"
     inkscape:cy="76.724277"
     inkscape:window-width="1920"
     inkscape:window-height="991"
     inkscape:window-x="-9"
     inkscape:window-y="-9"
     inkscape:window-maximized="1"
     inkscape:current-layer="svg5" /><defs
     id="defs2" /><path
     d="m 60.764115,83.90052 c 0,0 38.110552,0 47.563625,-2.51702 5.32265,-1.42631 9.32554,-5.53743 10.73046,-10.61341 2.59756,-9.31296 2.59756,-28.90373 2.59756,-28.90373 0,0 0,-19.46492 -2.59756,-28.69398 C 117.65328,7.97055 113.65039,3.94332 108.32774,2.55897 98.874667,0 60.764115,0 60.764115,0 c 0,0 -38.025522,0 -47.436056,2.55897 C 8.0905269,3.94332 4.0026759,7.97055 2.5123169,13.17238 -2.9635783e-8,22.40144 -2.9635783e-8,41.86636 -2.9635783e-8,41.86636 c 0,0 0,19.59077 2.512316929635783,28.90373 1.490359,5.07598 5.57821,9.1871 10.8157421,10.61341 9.410534,2.51702 47.436056,2.51702 47.436056,2.51702 z"
     fill="#ff0033"
     id="path1412"
     style="stroke-width:0.0208149"
     clip-path="none" /><path
     d="m 61.294721,11.70298 c 3.855786,0 6.990659,2.348426 6.990659,5.242995 0,1.135983 -0.480607,2.184581 -1.310748,3.04749 -0.720912,0.753681 -1.310749,1.671205 -1.310749,2.719804 0,1.638436 1.332594,2.97103 2.971031,2.97103 h 4.89346 c 2.894571,0 5.242994,2.348426 5.242994,5.242995 v 4.893462 c 0,1.638436 1.332596,2.971031 2.971031,2.971031 1.037676,0 1.966124,-0.589837 2.719799,-1.310749 0.86291,-0.819218 1.91151,-1.310748 3.0475,-1.310748 2.894572,0 5.242992,3.134873 5.242992,6.990658 0,3.855785 -2.34842,6.990662 -5.242992,6.990662 -1.13599,0 -2.19551,-0.48061 -3.0475,-1.31075 -0.753675,-0.720911 -1.6712,-1.310748 -2.719799,-1.310748 -1.638435,0 -2.971031,1.332592 -2.971031,2.971028 v 11.884129 c 0,2.894563 -2.348423,5.24299 -5.242994,5.24299 h -6.20421 c -1.398131,0 -2.534114,-1.135981 -2.534114,-2.53411 0,-1.004908 0.633529,-1.889669 1.441825,-2.490428 1.267056,-0.950298 2.053505,-2.261048 2.053505,-3.713787 0,-2.894572 -3.134873,-5.242997 -6.990659,-5.242997 -3.855787,0 -6.990661,2.348425 -6.990661,5.242997 0,1.452739 0.786449,2.763489 2.053507,3.713787 0.808295,0.600759 1.441824,1.474593 1.441824,2.490428 0,1.398129 -1.135982,2.53411 -2.534113,2.53411 H 42.070407 c -2.894571,0 -5.242995,-2.348427 -5.242995,-5.24299 V 49.190391 c 0,-1.398129 1.135984,-2.534112 2.534113,-2.534112 1.004909,0 1.889662,0.633527 2.490422,1.441823 0.950296,1.267059 2.261044,2.053508 3.713791,2.053508 2.894566,0 5.242996,-3.134877 5.242996,-6.990662 0,-3.855785 -2.34843,-6.990658 -5.242996,-6.990658 -1.452747,0 -2.763495,0.786449 -3.713791,2.053506 -0.60076,0.808295 -1.47459,1.441824 -2.490422,1.441824 -1.398129,0 -2.534113,-1.135983 -2.534113,-2.534115 v -6.204211 c 0,-2.894569 2.348424,-5.242995 5.242995,-5.242995 H 53.95453 c 1.638435,0 2.971029,-1.332594 2.971029,-2.97103 0,-1.037676 -0.589839,-1.966123 -1.310751,-2.719804 -0.819215,-0.862909 -1.310748,-1.911507 -1.310748,-3.04749 0,-2.894569 3.134874,-5.242995 6.990661,-5.242995 z"
     id="path1"
     style="fill:#ffffff;fill-opacity:1;stroke-width:0.109229" /></svg>
